<svg xmlns="http://www.w3.org/2000/svg" width="256" height="256" viewBox="0 0 256 256"><path fill="#A36196" d="M2.5 2.5h251v251H2.5z"/><path fill="#824679" d="M251 5v246H5V5h246m5-5H0v256h256V0z"/><text transform="translate(14.002 41.883)"><tspan x="0" y="0" fill="#FFF" font-family="'MyriadPro-Regular'" font-size="32">Products Require</tspan><tspan x="58.095" y="38.4" fill="#FFF" font-family="'MyriadPro-Regular'" font-size="32">Account</tspan></text><path fill="#00A5AD" stroke="#824679" stroke-width="5" stroke-miterlimit="10" d="M128 157.46c-20.577 0-24.746-31.183-24.746-31.183-2.447-16.227 4.983-34.538 24.477-34.538 19.578 0 27.013 18.31 24.562 34.537 0 0-3.72 31.183-24.292 31.183zm0 23.3l24.663-16.502c21.653 0 40.968 21.122 40.968 41.058v22.573s-33.09 10.25-65.63 10.25c-33.085 0-65.63-10.25-65.63-10.25v-22.574c0-20.396 17.59-40.605 40.52-40.605L128 180.76z"/></svg>
